<?xml version="1.0" encoding="UTF-8"?>
<svg id="Layer_2" data-name="Layer 2" xmlns="http://www.w3.org/2000/svg" viewBox="0 0 1291.88 211.8">
  <defs>
    <style>
      .cls-1 {
        fill: #f15650;
      }

      .cls-2 {
        fill: #f15d5a;
      }

      .cls-3 {
        fill: #e6e6e5;
      }
    </style>
  </defs>
  <g id="Layer_1-2" data-name="Layer 1">
    <path d="M84.88,132.5c23.19-5.1,42.14-20.87,47.76-44.35,6.09-25.46-6.76-52.46-30.23-64.03-19.78-9.75-42.72-6.79-60.15,5.59s-25.9,33.23-25.21,55.05c-2.25,10.1-7.18,19.89-6.26,31.73C-2.06,95.29-3.13,70.91,5.97,48.38,19.57,14.71,55.13-5.37,91.11,1.26c27.69,5.1,48.99,25.27,57.13,51.99,6.47,21.24,4.26,44.34-9.36,62.09l-29.93,39c-.41.53-1.5,1.47-2.05,1.72-.73.33-2.89-.62-3.53-1.39l-18.48-22.17Z"/>
    <path d="M78.28,194.53l-14.03-16.46-37.57-41.58c-5.08-19.21-4.37-38.82,7.76-55.04,1.28,9.35,3.77,17.18,9.54,24.04l49.22,58.57,4.56,4.53-19.47,25.94Z"/>
    <circle cx="77.31" cy="76.57" r="26.36"/>
    <path d="M281.17,144.13l-19.5-.17c-1.56-7.15-2.06-13.27-2.31-19.94-.33-8.64-6.56-14.06-14.85-13.97l-18.5.21.02,33.84-18.38.04V57.13s47.91.36,47.91.36c14.9.11,25.32,12.73,23.49,26.95-.25,9.51-6.37,16.12-15.82,18.87,6.56,1.36,12.66,5.63,13.36,12.63l1.7,17c.37,3.68,1.17,6.85,2.89,11.19ZM260.21,83.4c-.67-14.96-17.97-10.9-34.18-11.25l.03,24.16,22.95-.13c6.8-.04,12.12-5.38,11.2-12.78Z"/>
    <path d="M473.13,136.78c-4.39,6.21-10.82,9.35-18.66,9.15-9.4-.24-17.53-4.79-22.02-13.08-6.99-12.93-7.03-28.65.65-41.24,4.17-6.84,11.24-10.7,18.37-11.37,8.43-.8,15.39,1.79,21.41,9.33l.11-32.3h17.4s.06,86.77.06,86.77l-16.68.07-.65-7.33ZM472.15,122.97c2.31-6.87,2.09-14.8-.56-21.1-2.33-5.54-7.32-8.25-12.6-8.13-4.87.11-9.63,2.62-12.05,7.69-3.16,6.63-3.01,14.69-.68,21.65,2.03,6.07,6.98,9.28,12.86,9.44,5.57.14,10.86-3.06,13.03-9.54Z"/>
    <path d="M331.27,144.12l-.11-38.32c0-2.83-1.42-7.25-3.47-8.95-4.02-3.34-9.57-3.13-13.76-.97-3.76,1.94-6.58,7.01-6.59,11.93l-.08,36.27-17.17-.03V57.38s17.09-.15,17.09-.15l.21,32.97c6.03-8.23,14.72-11.42,24.24-9.73s16.13,9.4,16.89,19.59l.27,43.96-17.52.11Z"/>
    <path d="M543.59,125.59l15.83-.28c-1.95,10.5-10.29,17.75-20.82,19.85-11.13,2.22-23.03-.07-31.12-8.22-7.71-7.77-9.88-18.7-8.43-29.3,1.6-11.69,9.12-21.2,19.01-25.15,11.21-4.48,23.75-2.93,32.43,5.4,8.05,7.72,10.8,19,10.3,29.93l-44.79-.02c-.34,8.99,5.9,15.28,14.49,15.25,5.26-.01,10.12-1.22,13.1-7.45ZM543.28,106.72c-.15-8.11-6.16-13.86-14.05-13.41-6.91.39-12.83,5.5-13.34,13.55l27.4-.14Z"/>
    <path d="M422.13,113.03c0,18.25-14.8,33.05-33.05,33.05s-33.05-14.8-33.05-33.05,14.8-33.05,33.05-33.05,33.05,14.8,33.05,33.05ZM403.16,122c1.72-6.19,1.5-12.68-.27-18.46-1.98-6.49-7.68-10.28-13.91-10.2s-11.75,3.73-13.86,10.35c-1.76,5.53-1.71,12.17-.34,17.85,1.74,7.2,7.47,11.4,14.19,11.38,6.29-.02,12.18-3.76,14.17-10.92Z"/>
    <path d="M621.86,132.43c-4.97,13.73-27.34,16.55-42.37,10.57-7.76-3.09-12.86-9.65-13.11-18.35l15.63-.2c1.07,4.78,3.44,8.46,8.35,9.63,4.23,1.01,8.97.74,13.02-1.32,2.1-1.06,3.59-4.21,3.48-6.37-.09-1.78-2.56-4.66-4.6-5.13l-18.11-4.14c-4.33-.99-9.56-2.98-12.7-6.17-4.43-4.49-4.76-11.2-2.96-17.18,4.16-13.78,27.29-17.45,42.19-10.19,6.65,3.24,10.65,9.65,10.47,16.64l-15.39-.21c-.88-4.08-3-6.92-6.69-7.72-7.3-1.59-14.62.38-15.17,5.24-.18,1.59,1.85,5,3.41,5.38l18.65,4.58c4.98,1.22,10.69,2.79,13.95,6.89,4.09,5.14,4.17,11.9,1.95,18.06Z"/>
    <path class="cls-1" d="M916.47,164.12c-16.18,6.78-40.83,3.01-44.7-15.83l16.1-.64c1.66,5.99,6.65,8.05,12.65,8.25,6.65.23,13.35-2.98,13.52-10.39l.3-12.75c-7.26,7.26-15.83,9.88-25.83,7.09-12.29-3.42-18.61-15.38-18.54-28,.11-18.59,10.67-33.03,28.58-31.35,6.74.63,11.51,3.72,15.32,9.85l1.26-8.59,15.4.28-.1,60.41c-.02,9.81-4.95,17.88-13.98,21.66ZM907.03,126.68c7.65-3.86,8.67-12.57,7.75-19.96-.89-7.14-4.61-12.01-11.28-13.37-6.1-1.25-12.33,1-15.02,7.53-2.81,6.82-2.7,15.46,1.05,22.05,3.26,5.74,11.37,6.85,17.49,3.76Z"/>
    <path class="cls-1" d="M746.26,144.08l-.07-33.27c0-3.98.14-9.18-2.12-12.47-3.42-4.99-9.82-4.76-14.71-3.11-5.46,1.84-7.64,7.42-7.64,13.66v35.12s-16.61-.03-16.61-.03l.03-86.4,16.54.1.1,33.26c5.15-6.31,10.63-10.13,17.35-10.57,7.56-.5,14.51,1.41,19.25,7.75,2.93,3.92,4.2,9.66,4.22,14.67l.16,41.21-16.49.08Z"/>
    <path class="cls-1" d="M671.65,143.43l-18.11.5-.1-70.99-25.11.21-.72-8.39c-.14-1.64.49-4.95.89-6.89h67.85c1.44,4.99,1.42,9.92.21,15.11h-25s.1,70.46.1,70.46Z"/>
    <path class="cls-1" d="M832.97,93.87c-8.15.18-12.75,6.03-12.82,13.74l-.32,36.34-16.58.09.04-62,15.91-.26.68,9.79c5.73-8.77,13.84-12.17,23.62-10.89s17.07,8.25,17.11,18.41l.18,44.93-16.37-.08-.46-39.73c-.07-6.14-4.36-10.48-10.98-10.33Z"/>
    <path class="cls-1" d="M994.05,133.4c-5.83,13.16-28.81,14.95-42.1,9.3-7.38-3.13-12.68-9.81-11.52-17.88l14.13-.02c.89,7,6.39,10.02,12.94,10.13,3.73.07,7.42-.27,10.29-2.83,1.34-1.19,2.5-4.72,2.16-6.3s-2.86-4.16-4.55-4.61l-24.63-6.54c-6.1-1.62-9.18-8.24-9.7-13.28-.68-6.55,1.88-12.46,7.9-16.4,9.34-6.12,22.62-6.11,32.77-1.69,7.33,3.2,12.13,8.61,11.93,16.37l-14.77.43h0c-1.55-4.52-5.52-7.85-10.27-8.37-6.25-.68-11.39.85-11.74,5.75-.23,3.3,2.18,5.68,5.52,6.46l13.74,3.21c6.19,1.45,12.94,2.89,16.99,8.13s3.6,12.04.9,18.13Z"/>
    <rect class="cls-1" x="774.43" y="81.79" width="17.18" height="62.35" transform="translate(-.2 1.38)"/>
    <polygon class="cls-1" points="791.36 70.4 775.65 72.14 774.56 57.87 791.25 57.72 791.36 70.4"/>
    <path d="M1217.01,117.92c-4.55,15.08-16.95,25.67-32.77,25.8l-41.26.34.04-86.98,40.8.31c15.77.12,28.12,10.91,32.76,25.51,3.6,11.45,3.87,23,.43,35.03ZM1197.87,116.88c3.46-10.43,3.56-20.62.04-30.43-3.19-7.6-10.01-13.06-18.54-13.14l-17.42-.16v55.06s17.95-.03,17.95-.03c7.6-.01,14.38-4.42,17.97-11.3Z"/>
    <path d="M1132.63,113.04c0,18.34-14.87,33.22-33.22,33.22s-33.22-14.87-33.22-33.22,14.87-33.22,33.22-33.22,33.22,14.87,33.22,33.22ZM1112.34,125.18c2.69-5.7,2.68-12.26,1.89-18.14-1.03-7.65-6.42-13.14-13.57-13.66s-13.66,3.45-15.74,11c-3.61,13.07.55,27.45,12.2,28.38,6.16.5,12.22-1.24,15.22-7.58Z"/>
    <polygon points="1046.38 143.92 1027.99 144.14 1027.99 73.19 1001.62 73.19 1001.78 57.16 1072.69 57.15 1072.84 73.17 1046.34 73.21 1046.38 143.92"/>
    <path d="M1291.88,113.02c0,18.3-14.83,33.13-33.13,33.13s-33.13-14.83-33.13-33.13,14.83-33.13,33.13-33.13,33.13,14.83,33.13,33.13ZM1271.51,125.37c3.73-7.69,3.6-17.14-.04-24.33-3.02-5.96-9.02-8.35-14.92-7.57-5.57.74-10.13,4.54-11.94,10.64-3.67,12.36-.06,27.05,11.64,28.54,6.1.78,12.22-1.01,15.26-7.28Z"/>
    <circle class="cls-2" cx="77.31" cy="76.57" r="13"/>
    <ellipse class="cls-3" cx="78.27" cy="204.3" rx="48.22" ry="7.5"/>
  </g>
</svg>